<?xml version="1.0" encoding="utf-8" standalone="no"?>
<!DOCTYPE svg PUBLIC "-//W3C//DTD SVG 1.1//EN"
  "http://www.w3.org/Graphics/SVG/1.1/DTD/svg11.dtd">
<svg height="403.61852pt" version="1.1" viewBox="0 0 1598.126146 403.61852" width="1598.126146pt" xmlns="http://www.w3.org/2000/svg" xmlns:xlink="http://www.w3.org/1999/xlink">
 <metadata>
  <rdf:RDF xmlns:cc="http://creativecommons.org/ns#" xmlns:dc="http://purl.org/dc/elements/1.1/" xmlns:rdf="http://www.w3.org/1999/02/22-rdf-syntax-ns#">
   <cc:Work>
    <dc:type rdf:resource="http://purl.org/dc/dcmitype/StillImage"/>
    <dc:date>2021-06-07T15:02:20.377401</dc:date>
    <dc:format>image/svg+xml</dc:format>
    <dc:creator>
     <cc:Agent>
      <dc:title>Matplotlib v3.4.2, https://matplotlib.org/</dc:title>
     </cc:Agent>
    </dc:creator>
   </cc:Work>
  </rdf:RDF>
 </metadata>
 <defs>
  <style type="text/css">*{stroke-linecap:butt;stroke-linejoin:round;}</style>
 </defs>
 <g id="figure_1">
  <g id="patch_1">
   <path d="M 0 403.61852 
L 1598.126146 403.61852 
L 1598.126146 0 
L 0 0 
z
" style="fill:#ffffff;"/>
  </g>
  <g id="axes_1">
   <g id="patch_2">
    <path d="M 7.2 376.98477 
L 526.813664 376.98477 
L 526.813664 38.515 
L 7.2 38.515 
z
" style="fill:#ffffff;"/>
   </g>
   <g id="matplotlib.axis_1">
    <g id="xtick_1">
     <g id="line2d_1">
      <defs>
       <path d="M 0 0 
L 0 3.5 
" id="m091955d37b" style="stroke:#000000;stroke-width:0.8;"/>
      </defs>
      <g>
       <use style="stroke:#000000;stroke-width:0.8;" x="80.373224" xlink:href="#m091955d37b" y="376.98477"/>
      </g>
     </g>
     <g id="text_1">
      <!-- 1.32 -->
      <g transform="translate(67.927443 393.701645)scale(0.14 -0.14)">
       <defs>
        <path d="M 2714 0 
L 2714 371 
L 1914 371 
L 1914 4339 
L 1786 4339 
C 1408 3949 877 3930 570 3917 
L 570 3546 
C 781 3552 1088 3565 1408 3699 
L 1408 371 
L 608 371 
L 608 0 
L 2714 0 
z
" id="LMSans10-Regular-31" transform="scale(0.015625)"/>
        <path d="M 1152 0 
L 1152 531 
L 621 531 
L 621 0 
L 1152 0 
z
" id="LMSans10-Regular-2e" transform="scale(0.015625)"/>
        <path d="M 2925 1152 
C 2925 1734 2477 2131 2042 2266 
C 2528 2528 2752 2963 2752 3366 
C 2752 3917 2221 4339 1587 4339 
C 1094 4339 627 4083 358 3635 
L 589 3290 
C 774 3738 1190 3968 1581 3968 
C 1914 3968 2227 3776 2227 3366 
C 2227 2976 1965 2598 1574 2509 
C 1536 2502 1523 2502 1069 2464 
L 1069 2074 
L 1523 2074 
C 2214 2074 2355 1478 2355 1158 
C 2355 659 2061 250 1568 250 
C 1126 250 621 474 339 909 
L 269 525 
C 736 -77 1325 -141 1581 -141 
C 2362 -141 2925 480 2925 1152 
z
" id="LMSans10-Regular-33" transform="scale(0.015625)"/>
        <path d="M 2874 0 
L 2874 454 
L 1709 454 
C 1632 454 1555 448 1478 448 
L 781 448 
C 986 627 1472 1107 1670 1293 
C 1792 1408 2118 1677 2240 1792 
C 2528 2080 2874 2419 2874 2963 
C 2874 3699 2355 4339 1510 4339 
C 781 4339 422 3840 269 3290 
C 346 3181 378 3142 390 3123 
C 403 3110 467 3027 531 2938 
C 659 3430 838 3930 1421 3930 
C 2022 3930 2349 3450 2349 2950 
C 2349 2406 1984 2042 1606 1658 
L 1114 1203 
L 320 410 
L 320 0 
L 2874 0 
z
" id="LMSans10-Regular-32" transform="scale(0.015625)"/>
       </defs>
       <use xlink:href="#LMSans10-Regular-31"/>
       <use x="49.999985" xlink:href="#LMSans10-Regular-2e"/>
       <use x="77.799973" xlink:href="#LMSans10-Regular-33"/>
       <use x="127.799957" xlink:href="#LMSans10-Regular-32"/>
      </g>
     </g>
    </g>
    <g id="xtick_2">
     <g id="line2d_2">
      <g>
       <use style="stroke:#000000;stroke-width:0.8;" x="170.983059" xlink:href="#m091955d37b" y="376.98477"/>
      </g>
     </g>
     <g id="text_2">
      <!-- 1.34 -->
      <g transform="translate(158.537278 393.701645)scale(0.14 -0.14)">
       <defs>
        <path d="M 3014 1094 
L 3014 1485 
L 2381 1485 
L 2381 4198 
L 1798 4198 
L 179 1485 
L 179 1094 
L 1875 1094 
L 1875 0 
L 2381 0 
L 2381 1094 
L 3014 1094 
z
M 1914 1485 
L 678 1485 
C 1011 2035 1907 3552 1914 3917 
L 1914 1485 
z
" id="LMSans10-Regular-34" transform="scale(0.015625)"/>
       </defs>
       <use xlink:href="#LMSans10-Regular-31"/>
       <use x="49.999985" xlink:href="#LMSans10-Regular-2e"/>
       <use x="77.799973" xlink:href="#LMSans10-Regular-33"/>
       <use x="127.799957" xlink:href="#LMSans10-Regular-34"/>
      </g>
     </g>
    </g>
    <g id="xtick_3">
     <g id="line2d_3">
      <g>
       <use style="stroke:#000000;stroke-width:0.8;" x="261.592895" xlink:href="#m091955d37b" y="376.98477"/>
      </g>
     </g>
     <g id="text_3">
      <!-- 1.36 -->
      <g transform="translate(249.147113 393.701645)scale(0.14 -0.14)">
       <defs>
        <path d="M 2925 1421 
C 2925 2240 2502 2957 1888 2957 
C 1683 2957 1197 2906 806 2426 
C 890 3456 1395 3968 1984 3968 
C 2227 3968 2432 3923 2656 3834 
L 2656 4211 
C 2330 4339 2067 4339 1978 4339 
C 1075 4339 269 3437 269 2061 
C 269 250 1062 -141 1606 -141 
C 1990 -141 2266 6 2515 294 
C 2803 621 2925 915 2925 1421 
z
M 2400 1421 
C 2400 1203 2400 909 2246 646 
C 2138 467 1971 250 1606 250 
C 928 250 832 1190 813 1402 
C 813 1491 813 1504 819 1581 
C 819 2054 1107 2566 1638 2566 
C 1946 2566 2125 2406 2253 2170 
C 2387 1933 2400 1709 2400 1421 
z
" id="LMSans10-Regular-36" transform="scale(0.015625)"/>
       </defs>
       <use xlink:href="#LMSans10-Regular-31"/>
       <use x="49.999985" xlink:href="#LMSans10-Regular-2e"/>
       <use x="77.799973" xlink:href="#LMSans10-Regular-33"/>
       <use x="127.799957" xlink:href="#LMSans10-Regular-36"/>
      </g>
     </g>
    </g>
    <g id="xtick_4">
     <g id="line2d_4">
      <g>
       <use style="stroke:#000000;stroke-width:0.8;" x="352.20273" xlink:href="#m091955d37b" y="376.98477"/>
      </g>
     </g>
     <g id="text_4">
      <!-- 1.38 -->
      <g transform="translate(339.756948 393.701645)scale(0.14 -0.14)">
       <defs>
        <path d="M 2925 1152 
C 2925 1734 2477 2125 2048 2272 
C 2618 2458 2835 2880 2835 3219 
C 2835 3821 2291 4339 1600 4339 
C 883 4339 358 3808 358 3219 
C 358 2880 576 2458 1146 2272 
C 685 2112 269 1709 269 1152 
C 269 454 858 -141 1594 -141 
C 2355 -141 2925 474 2925 1152 
z
M 2387 3219 
C 2387 2758 2061 2464 1600 2464 
C 1107 2464 806 2778 806 3219 
C 806 3661 1120 3968 1594 3968 
C 2099 3968 2387 3635 2387 3219 
z
M 2406 1158 
C 2406 538 2010 250 1600 250 
C 1158 250 787 557 787 1158 
C 787 1830 1248 2074 1594 2074 
C 1965 2074 2406 1818 2406 1158 
z
" id="LMSans10-Regular-38" transform="scale(0.015625)"/>
       </defs>
       <use xlink:href="#LMSans10-Regular-31"/>
       <use x="49.999985" xlink:href="#LMSans10-Regular-2e"/>
       <use x="77.799973" xlink:href="#LMSans10-Regular-33"/>
       <use x="127.799957" xlink:href="#LMSans10-Regular-38"/>
      </g>
     </g>
    </g>
    <g id="xtick_5">
     <g id="line2d_5">
      <g>
       <use style="stroke:#000000;stroke-width:0.8;" x="442.812565" xlink:href="#m091955d37b" y="376.98477"/>
      </g>
     </g>
     <g id="text_5">
      <!-- 1.40 -->
      <g transform="translate(430.366783 393.701645)scale(0.14 -0.14)">
       <defs>
        <path d="M 2925 2086 
C 2925 2592 2899 3187 2630 3706 
C 2368 4186 1926 4339 1600 4339 
C 1222 4339 774 4166 512 3597 
C 301 3130 269 2598 269 2086 
C 269 1581 294 1114 486 646 
C 742 32 1229 -141 1594 -141 
C 2061 -141 2464 122 2669 563 
C 2861 979 2925 1402 2925 2086 
z
M 2426 2163 
C 2426 1741 2426 1338 2310 934 
C 2144 352 1805 250 1600 250 
C 1267 250 1005 493 877 954 
C 774 1318 768 1664 768 2163 
C 768 2566 768 2950 877 3302 
C 915 3424 1075 3949 1594 3949 
C 2093 3949 2259 3462 2304 3347 
C 2426 2989 2426 2560 2426 2163 
z
" id="LMSans10-Regular-30" transform="scale(0.015625)"/>
       </defs>
       <use xlink:href="#LMSans10-Regular-31"/>
       <use x="49.999985" xlink:href="#LMSans10-Regular-2e"/>
       <use x="77.799973" xlink:href="#LMSans10-Regular-34"/>
       <use x="127.799957" xlink:href="#LMSans10-Regular-30"/>
      </g>
     </g>
    </g>
   </g>
   <g id="matplotlib.axis_2"/>
   <g id="line2d_6">
    <path clip-path="url(#pb4ac4e321c)" d="M 30.818803 289.4743 
L 36.365293 289.328651 
L 41.911783 288.88254 
L 46.533858 288.308456 
L 51.155933 287.547429 
L 54.853593 286.710132 
L 59.475668 285.361471 
L 65.022157 283.289854 
L 67.795402 282.01952 
L 71.493062 280.086075 
L 74.266307 278.462417 
L 77.039552 276.644613 
L 81.661627 273.15122 
L 85.359287 269.925294 
L 89.056947 266.319702 
L 91.830192 263.393456 
L 95.527852 259.25788 
L 98.301097 255.831467 
L 102.923172 249.690842 
L 106.620832 244.407446 
L 110.318492 238.803555 
L 114.940567 231.380386 
L 121.411472 220.466336 
L 141.748601 185.307373 
L 146.370676 178.059963 
L 150.068336 172.494476 
L 155.614826 164.792982 
L 159.312486 160.064354 
L 163.934561 154.635641 
L 168.556636 149.571998 
L 177.800786 140.169478 
L 195.364671 122.801931 
L 199.986746 117.870547 
L 213.85297 101.91467 
L 220.323875 94.330297 
L 227.719195 86.022761 
L 231.416855 82.183616 
L 236.03893 77.799488 
L 238.812175 75.344743 
L 242.509835 72.316227 
L 245.28308 70.152423 
L 249.905155 66.97098 
L 253.602815 64.671559 
L 259.149305 61.542868 
L 262.846965 59.720291 
L 268.393455 57.263002 
L 273.01553 55.629077 
L 274.86436 55.067953 
L 277.637605 54.412239 
L 280.41085 54.000065 
L 283.184094 53.89999 
L 285.957339 54.109645 
L 287.806169 54.41637 
L 291.503829 55.465702 
L 294.277074 56.717756 
L 296.125904 57.681885 
L 298.899149 59.544923 
L 302.596809 62.598586 
L 304.445639 64.381571 
L 307.218884 67.252307 
L 311.840959 72.637991 
L 315.538619 77.400361 
L 319.236279 82.39969 
L 328.480429 95.540051 
L 335.875749 105.8937 
L 348.817559 123.26328 
L 366.381443 146.737121 
L 375.625593 159.497938 
L 391.340648 180.73897 
L 396.887138 187.914143 
L 402.433628 194.868142 
L 434.788152 234.260405 
L 441.259057 241.683932 
L 445.881132 246.654436 
L 449.578792 250.387635 
L 454.200867 254.677441 
L 457.898527 257.810347 
L 461.596187 260.628634 
L 465.293847 263.162715 
L 468.991507 265.377484 
L 472.689167 267.26034 
L 477.311242 269.097731 
L 481.008902 270.296368 
L 484.706562 271.199653 
L 489.328637 272.017806 
L 493.026297 272.428799 
L 498.572787 272.81694 
L 503.194861 272.890825 
L 503.194861 272.890825 
" style="fill:none;stroke:#1f77b4;stroke-linecap:square;stroke-width:1.5;"/>
   </g>
   <g id="line2d_7">
    <path clip-path="url(#pb4ac4e321c)" d="M 30.818803 361.433946 
L 30.818803 289.4743 
" style="fill:none;stroke:#1f77b4;stroke-linecap:square;stroke-width:1.5;"/>
   </g>
   <g id="line2d_8">
    <path clip-path="url(#pb4ac4e321c)" d="M 503.194861 361.59978 
L 503.194861 272.890825 
" style="fill:none;stroke:#1f77b4;stroke-linecap:square;stroke-width:1.5;"/>
   </g>
   <g id="line2d_9">
    <defs>
     <path d="M 0 3 
C 0.795609 3 1.55874 2.683901 2.12132 2.12132 
C 2.683901 1.55874 3 0.795609 3 0 
C 3 -0.795609 2.683901 -1.55874 2.12132 -2.12132 
C 1.55874 -2.683901 0.795609 -3 0 -3 
C -0.795609 -3 -1.55874 -2.683901 -2.12132 -2.12132 
C -2.683901 -1.55874 -3 -0.795609 -3 0 
C -3 0.795609 -2.683901 1.55874 -2.12132 2.12132 
C -1.55874 2.683901 -0.795609 3 0 3 
z
" id="mc07e7bb6b1" style="stroke:#000000;"/>
    </defs>
    <g clip-path="url(#pb4ac4e321c)">
     <use style="fill:#1f77b4;stroke:#000000;" x="273.031095" xlink:href="#mc07e7bb6b1" y="360.721474"/>
    </g>
   </g>
   <g id="patch_3">
    <path d="M 7.2 376.98477 
L 526.813664 376.98477 
" style="fill:none;stroke:#000000;stroke-linecap:square;stroke-linejoin:miter;stroke-width:0.8;"/>
   </g>
   <g id="text_6">
    <!-- beta -->
    <g transform="translate(252.583082 18.305)scale(0.16 -0.16)">
     <defs>
      <path d="M 3072 1427 
C 3072 2221 2637 2912 2035 2912 
C 1786 2912 1389 2848 1005 2534 
L 1005 4442 
L 525 4442 
L 525 0 
L 1024 0 
L 1024 294 
C 1178 154 1453 -70 1882 -70 
C 2522 -70 3072 570 3072 1427 
z
M 2573 1427 
C 2573 595 2035 320 1645 320 
C 1395 320 1184 435 1024 730 
L 1024 2144 
C 1126 2298 1357 2522 1709 2522 
C 2086 2522 2573 2246 2573 1427 
z
" id="LMSans10-Regular-62" transform="scale(0.015625)"/>
      <path d="M 2650 1402 
C 2650 1619 2643 2099 2394 2483 
C 2131 2880 1741 2950 1510 2950 
C 800 2950 224 2272 224 1446 
C 224 602 838 -70 1606 -70 
C 2010 -70 2374 83 2624 262 
L 2586 678 
C 2182 346 1760 320 1613 320 
C 1101 320 691 774 672 1402 
L 2650 1402 
z
M 2285 1754 
L 704 1754 
C 806 2240 1146 2560 1510 2560 
C 1843 2560 2202 2342 2285 1754 
z
" id="LMSans10-Regular-65" transform="scale(0.015625)"/>
      <path d="M 2125 173 
L 2022 550 
C 1856 416 1651 339 1446 339 
C 1210 339 1120 531 1120 870 
L 1120 2470 
L 2022 2470 
L 2022 2842 
L 1120 2842 
L 1120 3654 
L 678 3654 
L 678 2842 
L 122 2842 
L 122 2470 
L 659 2470 
L 659 762 
C 659 378 749 -70 1190 -70 
C 1638 -70 1965 90 2125 173 
z
" id="LMSans10-Regular-74" transform="scale(0.015625)"/>
      <path d="M 2618 0 
L 2618 1850 
C 2618 2502 2150 2950 1562 2950 
C 1146 2950 858 2848 557 2675 
L 595 2253 
C 928 2490 1248 2573 1562 2573 
C 1862 2573 2118 2317 2118 1843 
L 2118 1568 
C 1158 1555 346 1286 346 723 
C 346 448 518 -70 1075 -70 
C 1165 -70 1766 -58 2138 230 
L 2138 0 
L 2618 0 
z
M 2118 845 
C 2118 723 2118 563 1901 442 
C 1715 326 1472 320 1402 320 
C 1094 320 806 467 806 736 
C 806 1184 1843 1229 2118 1242 
L 2118 845 
z
" id="LMSans10-Regular-61" transform="scale(0.015625)"/>
     </defs>
     <use xlink:href="#LMSans10-Regular-62"/>
     <use x="51.699997" xlink:href="#LMSans10-Regular-65"/>
     <use x="96.099991" xlink:href="#LMSans10-Regular-74"/>
     <use x="132.199982" xlink:href="#LMSans10-Regular-61"/>
    </g>
    <!-- 0 -->
    <g transform="translate(263.006832 34.736)scale(0.16 -0.16)">
     <use xlink:href="#LMSans10-Regular-30"/>
    </g>
   </g>
  </g>
  <g id="axes_2">
   <g id="patch_4">
    <path d="M 537.412064 376.98477 
L 1057.025729 376.98477 
L 1057.025729 38.515 
L 537.412064 38.515 
z
" style="fill:#ffffff;"/>
   </g>
   <g id="matplotlib.axis_3">
    <g id="xtick_6">
     <g id="line2d_10">
      <g>
       <use style="stroke:#000000;stroke-width:0.8;" x="592.521397" xlink:href="#m091955d37b" y="376.98477"/>
      </g>
     </g>
     <g id="text_7">
      <!-- −0.70 -->
      <g transform="translate(574.629834 393.701645)scale(0.14 -0.14)">
       <defs>
        <path d="M 4614 1600 
C 4614 1728 4493 1728 4403 1728 
L 570 1728 
C 480 1728 358 1728 358 1600 
C 358 1472 480 1472 576 1472 
L 4397 1472 
C 4493 1472 4614 1472 4614 1600 
z
" id="LMSans10-Regular-2212" transform="scale(0.015625)"/>
        <path d="M 2925 3782 
L 2925 4198 
L 269 4198 
L 269 3744 
L 1485 3744 
C 1562 3744 1638 3750 1715 3750 
L 2490 3750 
C 1542 2707 973 1427 973 -70 
L 1510 -70 
C 1510 1850 2426 3219 2925 3782 
z
" id="LMSans10-Regular-37" transform="scale(0.015625)"/>
       </defs>
       <use xlink:href="#LMSans10-Regular-2212"/>
       <use x="77.799988" xlink:href="#LMSans10-Regular-30"/>
       <use x="127.799973" xlink:href="#LMSans10-Regular-2e"/>
       <use x="155.59996" xlink:href="#LMSans10-Regular-37"/>
       <use x="205.599945" xlink:href="#LMSans10-Regular-30"/>
      </g>
     </g>
    </g>
    <g id="xtick_7">
     <g id="line2d_11">
      <g>
       <use style="stroke:#000000;stroke-width:0.8;" x="681.244497" xlink:href="#m091955d37b" y="376.98477"/>
      </g>
     </g>
     <g id="text_8">
      <!-- −0.65 -->
      <g transform="translate(663.352934 393.701645)scale(0.14 -0.14)">
       <defs>
        <path d="M 2874 1299 
C 2874 2099 2323 2733 1664 2733 
C 1408 2733 1165 2637 979 2470 
L 979 3789 
L 2662 3789 
L 2662 4198 
L 518 4198 
L 518 1837 
L 941 1837 
C 1050 2093 1286 2342 1658 2342 
C 1958 2342 2304 2080 2304 1312 
C 2304 250 1523 250 1466 250 
C 1037 250 646 499 461 845 
L 250 486 
C 512 122 954 -141 1472 -141 
C 2234 -141 2874 493 2874 1299 
z
" id="LMSans10-Regular-35" transform="scale(0.015625)"/>
       </defs>
       <use xlink:href="#LMSans10-Regular-2212"/>
       <use x="77.799988" xlink:href="#LMSans10-Regular-30"/>
       <use x="127.799973" xlink:href="#LMSans10-Regular-2e"/>
       <use x="155.59996" xlink:href="#LMSans10-Regular-36"/>
       <use x="205.599945" xlink:href="#LMSans10-Regular-35"/>
      </g>
     </g>
    </g>
    <g id="xtick_8">
     <g id="line2d_12">
      <g>
       <use style="stroke:#000000;stroke-width:0.8;" x="769.967597" xlink:href="#m091955d37b" y="376.98477"/>
      </g>
     </g>
     <g id="text_9">
      <!-- −0.60 -->
      <g transform="translate(752.076034 393.701645)scale(0.14 -0.14)">
       <use xlink:href="#LMSans10-Regular-2212"/>
       <use x="77.799988" xlink:href="#LMSans10-Regular-30"/>
       <use x="127.799973" xlink:href="#LMSans10-Regular-2e"/>
       <use x="155.59996" xlink:href="#LMSans10-Regular-36"/>
       <use x="205.599945" xlink:href="#LMSans10-Regular-30"/>
      </g>
     </g>
    </g>
    <g id="xtick_9">
     <g id="line2d_13">
      <g>
       <use style="stroke:#000000;stroke-width:0.8;" x="858.690696" xlink:href="#m091955d37b" y="376.98477"/>
      </g>
     </g>
     <g id="text_10">
      <!-- −0.55 -->
      <g transform="translate(840.799134 393.701645)scale(0.14 -0.14)">
       <use xlink:href="#LMSans10-Regular-2212"/>
       <use x="77.799988" xlink:href="#LMSans10-Regular-30"/>
       <use x="127.799973" xlink:href="#LMSans10-Regular-2e"/>
       <use x="155.59996" xlink:href="#LMSans10-Regular-35"/>
       <use x="205.599945" xlink:href="#LMSans10-Regular-35"/>
      </g>
     </g>
    </g>
    <g id="xtick_10">
     <g id="line2d_14">
      <g>
       <use style="stroke:#000000;stroke-width:0.8;" x="947.413796" xlink:href="#m091955d37b" y="376.98477"/>
      </g>
     </g>
     <g id="text_11">
      <!-- −0.50 -->
      <g transform="translate(929.522234 393.701645)scale(0.14 -0.14)">
       <use xlink:href="#LMSans10-Regular-2212"/>
       <use x="77.799988" xlink:href="#LMSans10-Regular-30"/>
       <use x="127.799973" xlink:href="#LMSans10-Regular-2e"/>
       <use x="155.59996" xlink:href="#LMSans10-Regular-35"/>
       <use x="205.599945" xlink:href="#LMSans10-Regular-30"/>
      </g>
     </g>
    </g>
    <g id="xtick_11">
     <g id="line2d_15">
      <g>
       <use style="stroke:#000000;stroke-width:0.8;" x="1036.136896" xlink:href="#m091955d37b" y="376.98477"/>
      </g>
     </g>
     <g id="text_12">
      <!-- −0.45 -->
      <g transform="translate(1018.245333 393.701645)scale(0.14 -0.14)">
       <use xlink:href="#LMSans10-Regular-2212"/>
       <use x="77.799988" xlink:href="#LMSans10-Regular-30"/>
       <use x="127.799973" xlink:href="#LMSans10-Regular-2e"/>
       <use x="155.59996" xlink:href="#LMSans10-Regular-34"/>
       <use x="205.599945" xlink:href="#LMSans10-Regular-35"/>
      </g>
     </g>
    </g>
   </g>
   <g id="matplotlib.axis_4"/>
   <g id="line2d_16">
    <path clip-path="url(#pdc8b15d26e)" d="M 561.030867 279.646476 
L 563.804112 279.435496 
L 565.652942 279.071849 
L 568.426187 278.248025 
L 570.275017 277.501088 
L 573.048262 276.163606 
L 576.745922 273.84617 
L 579.519167 271.789267 
L 582.292412 269.437617 
L 585.065657 266.878782 
L 589.687732 262.091619 
L 592.460977 258.970965 
L 597.083052 253.463421 
L 601.705127 247.566056 
L 606.327202 241.347199 
L 615.571352 228.229195 
L 628.513161 209.263047 
L 634.059651 201.186264 
L 640.530556 192.01298 
L 652.547951 175.810082 
L 659.943271 166.292066 
L 666.414176 158.216044 
L 714.483755 99.038571 
L 720.030245 92.263954 
L 730.19881 80.290933 
L 738.518545 71.426689 
L 741.29179 68.749431 
L 744.98945 65.464366 
L 748.68711 62.568389 
L 752.38477 59.985946 
L 755.158015 58.34107 
L 758.855675 56.506603 
L 761.62892 55.477733 
L 765.32658 54.464955 
L 767.17541 54.18297 
L 770.873069 53.89999 
L 773.646314 54.005518 
L 775.495144 54.145564 
L 778.268389 54.597939 
L 781.966049 55.513311 
L 788.436954 57.87344 
L 796.756689 61.743412 
L 804.152009 65.561617 
L 813.396159 70.494851 
L 832.808874 80.554216 
L 835.582119 81.929414 
L 852.221588 90.821534 
L 859.616908 95.326229 
L 868.861058 102.058077 
L 872.558718 105.153534 
L 877.180793 109.452032 
L 880.878453 113.228268 
L 886.424943 119.44671 
L 891.047018 125.035473 
L 898.442338 134.806257 
L 904.913243 143.81103 
L 910.459733 151.809784 
L 915.081807 158.587715 
L 940.965427 196.701789 
L 945.587502 203.082001 
L 951.133992 210.488968 
L 954.831652 215.192468 
L 959.453727 220.7976 
L 965.924632 228.161497 
L 970.546707 233.117532 
L 975.168782 237.78907 
L 979.790857 242.247454 
L 986.261762 248.120516 
L 992.732666 253.467898 
L 997.354741 256.948229 
L 1001.052401 259.504069 
L 1004.750061 261.822654 
L 1008.447721 263.846759 
L 1013.069796 266.011127 
L 1015.843041 267.127522 
L 1019.540701 268.359882 
L 1023.238361 269.297977 
L 1026.011606 269.824085 
L 1029.709266 270.282076 
L 1033.406926 270.482615 
L 1033.406926 270.482615 
" style="fill:none;stroke:#1f77b4;stroke-linecap:square;stroke-width:1.5;"/>
   </g>
   <g id="line2d_17">
    <path clip-path="url(#pdc8b15d26e)" d="M 561.030867 361.508142 
L 561.030867 279.646476 
" style="fill:none;stroke:#1f77b4;stroke-linecap:square;stroke-width:1.5;"/>
   </g>
   <g id="line2d_18">
    <path clip-path="url(#pdc8b15d26e)" d="M 1033.406926 361.59978 
L 1033.406926 270.482615 
" style="fill:none;stroke:#1f77b4;stroke-linecap:square;stroke-width:1.5;"/>
   </g>
   <g id="line2d_19">
    <g clip-path="url(#pdc8b15d26e)">
     <use style="fill:#1f77b4;stroke:#000000;" x="793.929143" xlink:href="#mc07e7bb6b1" y="360.69763"/>
    </g>
   </g>
   <g id="patch_5">
    <path d="M 537.412064 376.98477 
L 1057.025729 376.98477 
" style="fill:none;stroke:#000000;stroke-linecap:square;stroke-linejoin:miter;stroke-width:0.8;"/>
   </g>
   <g id="text_13">
    <!-- beta -->
    <g transform="translate(782.795147 18.305)scale(0.16 -0.16)">
     <use xlink:href="#LMSans10-Regular-62"/>
     <use x="51.699997" xlink:href="#LMSans10-Regular-65"/>
     <use x="96.099991" xlink:href="#LMSans10-Regular-74"/>
     <use x="132.199982" xlink:href="#LMSans10-Regular-61"/>
    </g>
    <!-- 1 -->
    <g transform="translate(793.218897 34.736)scale(0.16 -0.16)">
     <use xlink:href="#LMSans10-Regular-31"/>
    </g>
   </g>
  </g>
  <g id="axes_3">
   <g id="patch_6">
    <path d="M 1067.624129 376.98477 
L 1587.237793 376.98477 
L 1587.237793 38.515 
L 1067.624129 38.515 
z
" style="fill:#ffffff;"/>
   </g>
   <g id="matplotlib.axis_5">
    <g id="xtick_12">
     <g id="line2d_20">
      <g>
       <use style="stroke:#000000;stroke-width:0.8;" x="1108.796457" xlink:href="#m091955d37b" y="376.98477"/>
      </g>
     </g>
     <g id="text_14">
      <!-- 0.76 -->
      <g transform="translate(1096.350676 393.701645)scale(0.14 -0.14)">
       <use xlink:href="#LMSans10-Regular-30"/>
       <use x="49.999985" xlink:href="#LMSans10-Regular-2e"/>
       <use x="77.799973" xlink:href="#LMSans10-Regular-37"/>
       <use x="127.799957" xlink:href="#LMSans10-Regular-36"/>
      </g>
     </g>
    </g>
    <g id="xtick_13">
     <g id="line2d_21">
      <g>
       <use style="stroke:#000000;stroke-width:0.8;" x="1175.894158" xlink:href="#m091955d37b" y="376.98477"/>
      </g>
     </g>
     <g id="text_15">
      <!-- 0.77 -->
      <g transform="translate(1163.448377 393.701645)scale(0.14 -0.14)">
       <use xlink:href="#LMSans10-Regular-30"/>
       <use x="49.999985" xlink:href="#LMSans10-Regular-2e"/>
       <use x="77.799973" xlink:href="#LMSans10-Regular-37"/>
       <use x="127.799957" xlink:href="#LMSans10-Regular-37"/>
      </g>
     </g>
    </g>
    <g id="xtick_14">
     <g id="line2d_22">
      <g>
       <use style="stroke:#000000;stroke-width:0.8;" x="1242.991859" xlink:href="#m091955d37b" y="376.98477"/>
      </g>
     </g>
     <g id="text_16">
      <!-- 0.78 -->
      <g transform="translate(1230.546078 393.701645)scale(0.14 -0.14)">
       <use xlink:href="#LMSans10-Regular-30"/>
       <use x="49.999985" xlink:href="#LMSans10-Regular-2e"/>
       <use x="77.799973" xlink:href="#LMSans10-Regular-37"/>
       <use x="127.799957" xlink:href="#LMSans10-Regular-38"/>
      </g>
     </g>
    </g>
    <g id="xtick_15">
     <g id="line2d_23">
      <g>
       <use style="stroke:#000000;stroke-width:0.8;" x="1310.08956" xlink:href="#m091955d37b" y="376.98477"/>
      </g>
     </g>
     <g id="text_17">
      <!-- 0.79 -->
      <g transform="translate(1297.643779 393.701645)scale(0.14 -0.14)">
       <defs>
        <path d="M 2925 2144 
C 2925 3936 2163 4339 1619 4339 
C 1171 4339 909 4147 685 3910 
C 282 3475 269 3053 269 2778 
C 269 1958 691 1242 1306 1242 
C 1702 1242 2112 1427 2387 1773 
C 2317 742 1824 250 1318 250 
C 1101 250 890 301 659 493 
L 461 154 
C 678 -6 915 -141 1312 -141 
C 2150 -141 2925 749 2925 2144 
z
M 2374 2630 
C 2374 2106 2061 1632 1555 1632 
C 1254 1632 1075 1779 941 2016 
C 800 2266 794 2502 794 2778 
C 794 3059 800 3322 979 3603 
C 1107 3789 1286 3968 1619 3968 
C 2246 3968 2355 3098 2368 2784 
C 2374 2739 2374 2675 2374 2630 
z
" id="LMSans10-Regular-39" transform="scale(0.015625)"/>
       </defs>
       <use xlink:href="#LMSans10-Regular-30"/>
       <use x="49.999985" xlink:href="#LMSans10-Regular-2e"/>
       <use x="77.799973" xlink:href="#LMSans10-Regular-37"/>
       <use x="127.799957" xlink:href="#LMSans10-Regular-39"/>
      </g>
     </g>
    </g>
    <g id="xtick_16">
     <g id="line2d_24">
      <g>
       <use style="stroke:#000000;stroke-width:0.8;" x="1377.187261" xlink:href="#m091955d37b" y="376.98477"/>
      </g>
     </g>
     <g id="text_18">
      <!-- 0.80 -->
      <g transform="translate(1364.74148 393.701645)scale(0.14 -0.14)">
       <use xlink:href="#LMSans10-Regular-30"/>
       <use x="49.999985" xlink:href="#LMSans10-Regular-2e"/>
       <use x="77.799973" xlink:href="#LMSans10-Regular-38"/>
       <use x="127.799957" xlink:href="#LMSans10-Regular-30"/>
      </g>
     </g>
    </g>
    <g id="xtick_17">
     <g id="line2d_25">
      <g>
       <use style="stroke:#000000;stroke-width:0.8;" x="1444.284962" xlink:href="#m091955d37b" y="376.98477"/>
      </g>
     </g>
     <g id="text_19">
      <!-- 0.81 -->
      <g transform="translate(1431.839181 393.701645)scale(0.14 -0.14)">
       <use xlink:href="#LMSans10-Regular-30"/>
       <use x="49.999985" xlink:href="#LMSans10-Regular-2e"/>
       <use x="77.799973" xlink:href="#LMSans10-Regular-38"/>
       <use x="127.799957" xlink:href="#LMSans10-Regular-31"/>
      </g>
     </g>
    </g>
    <g id="xtick_18">
     <g id="line2d_26">
      <g>
       <use style="stroke:#000000;stroke-width:0.8;" x="1511.382663" xlink:href="#m091955d37b" y="376.98477"/>
      </g>
     </g>
     <g id="text_20">
      <!-- 0.82 -->
      <g transform="translate(1498.936882 393.701645)scale(0.14 -0.14)">
       <use xlink:href="#LMSans10-Regular-30"/>
       <use x="49.999985" xlink:href="#LMSans10-Regular-2e"/>
       <use x="77.799973" xlink:href="#LMSans10-Regular-38"/>
       <use x="127.799957" xlink:href="#LMSans10-Regular-32"/>
      </g>
     </g>
    </g>
    <g id="xtick_19">
     <g id="line2d_27">
      <g>
       <use style="stroke:#000000;stroke-width:0.8;" x="1578.480364" xlink:href="#m091955d37b" y="376.98477"/>
      </g>
     </g>
     <g id="text_21">
      <!-- 0.83 -->
      <g transform="translate(1566.034583 393.701645)scale(0.14 -0.14)">
       <use xlink:href="#LMSans10-Regular-30"/>
       <use x="49.999985" xlink:href="#LMSans10-Regular-2e"/>
       <use x="77.799973" xlink:href="#LMSans10-Regular-38"/>
       <use x="127.799957" xlink:href="#LMSans10-Regular-33"/>
      </g>
     </g>
    </g>
   </g>
   <g id="matplotlib.axis_6"/>
   <g id="line2d_28">
    <path clip-path="url(#pb9ae260d42)" d="M 1091.242932 303.874943 
L 1094.940592 303.834543 
L 1099.562667 303.608853 
L 1102.335912 303.369582 
L 1106.033572 302.83868 
L 1109.731231 302.068492 
L 1112.504476 301.237075 
L 1115.277721 300.236333 
L 1118.050966 298.898087 
L 1120.824211 297.331711 
L 1123.597456 295.394406 
L 1126.370701 293.120957 
L 1129.143946 290.476233 
L 1131.917191 287.416662 
L 1133.766021 285.187608 
L 1137.463681 280.194978 
L 1140.236926 276.029094 
L 1143.010171 271.581211 
L 1147.632246 263.433928 
L 1152.254321 254.656825 
L 1157.800811 243.507676 
L 1175.364696 208.140022 
L 1180.911186 197.841421 
L 1184.608845 191.392596 
L 1189.23092 183.871637 
L 1192.92858 178.341112 
L 1196.62624 173.275573 
L 1199.399485 169.786142 
L 1202.17273 166.557557 
L 1204.945975 163.652957 
L 1207.71922 161.064012 
L 1211.41688 157.924186 
L 1215.11454 155.196407 
L 1217.887785 153.380451 
L 1223.434275 150.201757 
L 1231.75401 145.787029 
L 1240.99816 140.051975 
L 1244.69582 137.216514 
L 1247.469065 134.750321 
L 1252.09114 130.201437 
L 1256.713214 125.037157 
L 1259.486459 121.496797 
L 1262.259704 117.843455 
L 1265.957364 112.676821 
L 1277.974759 94.706158 
L 1281.672419 89.211149 
L 1288.143324 80.392977 
L 1291.840984 75.832995 
L 1294.614229 72.7548 
L 1297.387474 69.876888 
L 1301.085134 66.494979 
L 1304.782794 63.619446 
L 1309.404869 60.598888 
L 1314.026944 58.109997 
L 1315.875774 57.249803 
L 1320.497849 55.635551 
L 1322.346679 55.07451 
L 1325.119924 54.491971 
L 1327.893168 54.079732 
L 1330.666413 53.911029 
L 1333.439658 53.966673 
L 1335.288488 54.16273 
L 1338.986148 55.002925 
L 1341.759393 56.016433 
L 1343.608223 56.899707 
L 1346.381468 58.499902 
L 1348.230298 59.785915 
L 1351.003543 62.068763 
L 1353.776788 64.732078 
L 1356.550033 67.757696 
L 1359.323278 71.136916 
L 1362.096523 74.848092 
L 1365.794183 80.2467 
L 1370.416258 87.563538 
L 1380.584823 104.886657 
L 1385.206898 112.842671 
L 1389.828973 120.527193 
L 1398.148708 133.606814 
L 1405.544027 144.345977 
L 1411.090517 152.060035 
L 1426.805572 174.010404 
L 1433.276477 183.589019 
L 1441.596212 196.356011 
L 1461.933342 228.09239 
L 1471.177492 241.815583 
L 1475.799566 248.3723 
L 1483.194886 258.373748 
L 1486.892546 263.212324 
L 1492.439036 269.982412 
L 1496.136696 274.194803 
L 1500.758771 279.09146 
L 1504.456431 282.629122 
L 1507.229676 285.057473 
L 1510.002921 287.257709 
L 1512.776166 289.195137 
L 1515.549411 290.840685 
L 1518.322656 292.165524 
L 1521.095901 293.184511 
L 1522.944731 293.71929 
L 1525.717976 294.220114 
L 1527.566806 294.392414 
L 1529.415636 294.421123 
L 1532.188881 294.208715 
L 1534.962126 293.738391 
L 1538.659786 292.739188 
L 1542.357446 291.459353 
L 1554.37484 286.879322 
L 1558.0725 285.869712 
L 1560.845745 285.36662 
L 1563.61899 285.146933 
L 1563.61899 285.146933 
" style="fill:none;stroke:#1f77b4;stroke-linecap:square;stroke-width:1.5;"/>
   </g>
   <g id="line2d_29">
    <path clip-path="url(#pb9ae260d42)" d="M 1091.242932 361.4125 
L 1091.242932 303.874943 
" style="fill:none;stroke:#1f77b4;stroke-linecap:square;stroke-width:1.5;"/>
   </g>
   <g id="line2d_30">
    <path clip-path="url(#pb9ae260d42)" d="M 1563.61899 361.59978 
L 1563.61899 285.146933 
" style="fill:none;stroke:#1f77b4;stroke-linecap:square;stroke-width:1.5;"/>
   </g>
   <g id="line2d_31">
    <g clip-path="url(#pb9ae260d42)">
     <use style="fill:#1f77b4;stroke:#000000;" x="1320.905793" xlink:href="#mc07e7bb6b1" y="360.842822"/>
    </g>
   </g>
   <g id="patch_7">
    <path d="M 1067.624129 376.98477 
L 1587.237793 376.98477 
" style="fill:none;stroke:#000000;stroke-linecap:square;stroke-linejoin:miter;stroke-width:0.8;"/>
   </g>
   <g id="text_22">
    <!-- sigma -->
    <g transform="translate(1308.254711 32.515)scale(0.16 -0.16)">
     <defs>
      <path d="M 2304 819 
C 2304 1171 2067 1389 2054 1408 
C 1805 1632 1632 1670 1312 1728 
C 960 1798 666 1862 666 2176 
C 666 2573 1126 2573 1210 2573 
C 1414 2573 1754 2547 2118 2330 
L 2195 2746 
C 1862 2899 1600 2950 1274 2950 
C 1114 2950 211 2950 211 2112 
C 211 1798 397 1594 557 1472 
C 755 1331 896 1306 1248 1235 
C 1478 1190 1850 1114 1850 774 
C 1850 333 1344 333 1248 333 
C 730 333 371 570 256 646 
L 179 211 
C 384 109 736 -70 1254 -70 
C 1370 -70 1722 -70 1997 134 
C 2195 288 2304 544 2304 819 
z
" id="LMSans10-Regular-73" transform="scale(0.015625)"/>
      <path d="M 998 0 
L 998 2842 
L 518 2842 
L 518 0 
L 998 0 
z
M 1050 3622 
L 1050 4192 
L 480 4192 
L 480 3622 
L 1050 3622 
z
" id="LMSans10-Regular-69" transform="scale(0.015625)"/>
      <path d="M 3104 2509 
L 3034 2912 
C 2586 2912 2214 2790 2022 2707 
C 1888 2816 1670 2912 1414 2912 
C 864 2912 397 2451 397 1869 
C 397 1632 480 1402 608 1235 
C 422 973 422 723 422 691 
C 422 525 480 339 589 205 
C 256 6 179 -288 179 -454 
C 179 -934 813 -1318 1594 -1318 
C 2381 -1318 3014 -941 3014 -448 
C 3014 442 1946 442 1696 442 
L 1133 442 
C 1050 442 762 442 762 781 
C 762 851 787 954 832 1011 
C 966 915 1178 826 1414 826 
C 1990 826 2438 1299 2438 1869 
C 2438 2176 2298 2413 2227 2509 
L 2253 2502 
C 2394 2502 2573 2528 2726 2528 
C 2842 2528 3104 2509 3104 2509 
z
M 1990 1869 
C 1990 1370 1690 1190 1414 1190 
C 1178 1190 845 1338 845 1869 
C 845 2400 1178 2547 1414 2547 
C 1690 2547 1990 2368 1990 1869 
z
M 2566 -461 
C 2566 -742 2125 -954 1600 -954 
C 1082 -954 627 -755 627 -454 
C 627 -435 627 -19 1126 -19 
L 1702 -19 
C 1843 -19 2566 -19 2566 -461 
z
" id="LMSans10-Regular-67" transform="scale(0.015625)"/>
      <path d="M 4563 0 
L 4563 1907 
C 4563 2336 4461 2912 3686 2912 
C 3302 2912 2970 2733 2733 2387 
C 2566 2874 2118 2912 1914 2912 
C 1453 2912 1152 2650 979 2419 
L 979 2880 
L 518 2880 
L 518 0 
L 1018 0 
L 1018 1568 
C 1018 2003 1190 2522 1664 2522 
C 2259 2522 2291 2106 2291 1862 
L 2291 0 
L 2790 0 
L 2790 1568 
C 2790 2003 2963 2522 3437 2522 
C 4032 2522 4064 2106 4064 1862 
L 4064 0 
L 4563 0 
z
" id="LMSans10-Regular-6d" transform="scale(0.015625)"/>
     </defs>
     <use xlink:href="#LMSans10-Regular-73"/>
     <use x="38.299988" xlink:href="#LMSans10-Regular-69"/>
     <use x="62.199982" xlink:href="#LMSans10-Regular-67"/>
     <use x="112.199966" xlink:href="#LMSans10-Regular-6d"/>
     <use x="191.59996" xlink:href="#LMSans10-Regular-61"/>
    </g>
   </g>
  </g>
 </g>
 <defs>
  <clipPath id="pb4ac4e321c">
   <rect height="338.46977" width="519.613664" x="7.2" y="38.515"/>
  </clipPath>
  <clipPath id="pdc8b15d26e">
   <rect height="338.46977" width="519.613664" x="537.412064" y="38.515"/>
  </clipPath>
  <clipPath id="pb9ae260d42">
   <rect height="338.46977" width="519.613664" x="1067.624129" y="38.515"/>
  </clipPath>
 </defs>
</svg>
