<?xml version="1.0" encoding="utf-8" standalone="no"?>
<!DOCTYPE svg PUBLIC "-//W3C//DTD SVG 1.1//EN"
  "http://www.w3.org/Graphics/SVG/1.1/DTD/svg11.dtd">
<svg height="405.83952pt" version="1.1" viewBox="0 0 1068.23952 405.83952" width="1068.23952pt" xmlns="http://www.w3.org/2000/svg" xmlns:xlink="http://www.w3.org/1999/xlink">
 <metadata>
  <rdf:RDF xmlns:cc="http://creativecommons.org/ns#" xmlns:dc="http://purl.org/dc/elements/1.1/" xmlns:rdf="http://www.w3.org/1999/02/22-rdf-syntax-ns#">
   <cc:Work>
    <dc:type rdf:resource="http://purl.org/dc/dcmitype/StillImage"/>
    <dc:date>2021-06-07T15:02:33.316365</dc:date>
    <dc:format>image/svg+xml</dc:format>
    <dc:creator>
     <cc:Agent>
      <dc:title>Matplotlib v3.4.2, https://matplotlib.org/</dc:title>
     </cc:Agent>
    </dc:creator>
   </cc:Work>
  </rdf:RDF>
 </metadata>
 <defs>
  <style type="text/css">*{stroke-linecap:butt;stroke-linejoin:round;}</style>
 </defs>
 <g id="figure_1">
  <g id="patch_1">
   <path d="M 0 405.83952 
L 1068.23952 405.83952 
L 1068.23952 0 
L 0 0 
z
" style="fill:#ffffff;"/>
  </g>
  <g id="axes_1">
   <g id="patch_2">
    <path d="M 7.2 379.20577 
L 528.82056 379.20577 
L 528.82056 24.305 
L 7.2 24.305 
z
" style="fill:#ffffff;"/>
   </g>
   <g id="matplotlib.axis_1">
    <g id="xtick_1">
     <g id="line2d_1">
      <defs>
       <path d="M 0 0 
L 0 3.5 
" id="m85bccb09d8" style="stroke:#000000;stroke-width:0.8;"/>
      </defs>
      <g>
       <use style="stroke:#000000;stroke-width:0.8;" x="75.061005" xlink:href="#m85bccb09d8" y="379.20577"/>
      </g>
     </g>
     <g id="text_1">
      <!-- −0.80 -->
      <g transform="translate(57.169443 395.922645)scale(0.14 -0.14)">
       <defs>
        <path d="M 4614 1600 
C 4614 1728 4493 1728 4403 1728 
L 570 1728 
C 480 1728 358 1728 358 1600 
C 358 1472 480 1472 576 1472 
L 4397 1472 
C 4493 1472 4614 1472 4614 1600 
z
" id="LMSans10-Regular-2212" transform="scale(0.015625)"/>
        <path d="M 2925 2086 
C 2925 2592 2899 3187 2630 3706 
C 2368 4186 1926 4339 1600 4339 
C 1222 4339 774 4166 512 3597 
C 301 3130 269 2598 269 2086 
C 269 1581 294 1114 486 646 
C 742 32 1229 -141 1594 -141 
C 2061 -141 2464 122 2669 563 
C 2861 979 2925 1402 2925 2086 
z
M 2426 2163 
C 2426 1741 2426 1338 2310 934 
C 2144 352 1805 250 1600 250 
C 1267 250 1005 493 877 954 
C 774 1318 768 1664 768 2163 
C 768 2566 768 2950 877 3302 
C 915 3424 1075 3949 1594 3949 
C 2093 3949 2259 3462 2304 3347 
C 2426 2989 2426 2560 2426 2163 
z
" id="LMSans10-Regular-30" transform="scale(0.015625)"/>
        <path d="M 1152 0 
L 1152 531 
L 621 531 
L 621 0 
L 1152 0 
z
" id="LMSans10-Regular-2e" transform="scale(0.015625)"/>
        <path d="M 2925 1152 
C 2925 1734 2477 2125 2048 2272 
C 2618 2458 2835 2880 2835 3219 
C 2835 3821 2291 4339 1600 4339 
C 883 4339 358 3808 358 3219 
C 358 2880 576 2458 1146 2272 
C 685 2112 269 1709 269 1152 
C 269 454 858 -141 1594 -141 
C 2355 -141 2925 474 2925 1152 
z
M 2387 3219 
C 2387 2758 2061 2464 1600 2464 
C 1107 2464 806 2778 806 3219 
C 806 3661 1120 3968 1594 3968 
C 2099 3968 2387 3635 2387 3219 
z
M 2406 1158 
C 2406 538 2010 250 1600 250 
C 1158 250 787 557 787 1158 
C 787 1830 1248 2074 1594 2074 
C 1965 2074 2406 1818 2406 1158 
z
" id="LMSans10-Regular-38" transform="scale(0.015625)"/>
       </defs>
       <use xlink:href="#LMSans10-Regular-2212"/>
       <use x="77.799988" xlink:href="#LMSans10-Regular-30"/>
       <use x="127.799973" xlink:href="#LMSans10-Regular-2e"/>
       <use x="155.59996" xlink:href="#LMSans10-Regular-38"/>
       <use x="205.599945" xlink:href="#LMSans10-Regular-30"/>
      </g>
     </g>
    </g>
    <g id="xtick_2">
     <g id="line2d_2">
      <g>
       <use style="stroke:#000000;stroke-width:0.8;" x="169.062464" xlink:href="#m85bccb09d8" y="379.20577"/>
      </g>
     </g>
     <g id="text_2">
      <!-- −0.75 -->
      <g transform="translate(151.170902 395.922645)scale(0.14 -0.14)">
       <defs>
        <path d="M 2925 3782 
L 2925 4198 
L 269 4198 
L 269 3744 
L 1485 3744 
C 1562 3744 1638 3750 1715 3750 
L 2490 3750 
C 1542 2707 973 1427 973 -70 
L 1510 -70 
C 1510 1850 2426 3219 2925 3782 
z
" id="LMSans10-Regular-37" transform="scale(0.015625)"/>
        <path d="M 2874 1299 
C 2874 2099 2323 2733 1664 2733 
C 1408 2733 1165 2637 979 2470 
L 979 3789 
L 2662 3789 
L 2662 4198 
L 518 4198 
L 518 1837 
L 941 1837 
C 1050 2093 1286 2342 1658 2342 
C 1958 2342 2304 2080 2304 1312 
C 2304 250 1523 250 1466 250 
C 1037 250 646 499 461 845 
L 250 486 
C 512 122 954 -141 1472 -141 
C 2234 -141 2874 493 2874 1299 
z
" id="LMSans10-Regular-35" transform="scale(0.015625)"/>
       </defs>
       <use xlink:href="#LMSans10-Regular-2212"/>
       <use x="77.799988" xlink:href="#LMSans10-Regular-30"/>
       <use x="127.799973" xlink:href="#LMSans10-Regular-2e"/>
       <use x="155.59996" xlink:href="#LMSans10-Regular-37"/>
       <use x="205.599945" xlink:href="#LMSans10-Regular-35"/>
      </g>
     </g>
    </g>
    <g id="xtick_3">
     <g id="line2d_3">
      <g>
       <use style="stroke:#000000;stroke-width:0.8;" x="263.063923" xlink:href="#m85bccb09d8" y="379.20577"/>
      </g>
     </g>
     <g id="text_3">
      <!-- −0.70 -->
      <g transform="translate(245.172361 395.922645)scale(0.14 -0.14)">
       <use xlink:href="#LMSans10-Regular-2212"/>
       <use x="77.799988" xlink:href="#LMSans10-Regular-30"/>
       <use x="127.799973" xlink:href="#LMSans10-Regular-2e"/>
       <use x="155.59996" xlink:href="#LMSans10-Regular-37"/>
       <use x="205.599945" xlink:href="#LMSans10-Regular-30"/>
      </g>
     </g>
    </g>
    <g id="xtick_4">
     <g id="line2d_4">
      <g>
       <use style="stroke:#000000;stroke-width:0.8;" x="357.065382" xlink:href="#m85bccb09d8" y="379.20577"/>
      </g>
     </g>
     <g id="text_4">
      <!-- −0.65 -->
      <g transform="translate(339.17382 395.922645)scale(0.14 -0.14)">
       <defs>
        <path d="M 2925 1421 
C 2925 2240 2502 2957 1888 2957 
C 1683 2957 1197 2906 806 2426 
C 890 3456 1395 3968 1984 3968 
C 2227 3968 2432 3923 2656 3834 
L 2656 4211 
C 2330 4339 2067 4339 1978 4339 
C 1075 4339 269 3437 269 2061 
C 269 250 1062 -141 1606 -141 
C 1990 -141 2266 6 2515 294 
C 2803 621 2925 915 2925 1421 
z
M 2400 1421 
C 2400 1203 2400 909 2246 646 
C 2138 467 1971 250 1606 250 
C 928 250 832 1190 813 1402 
C 813 1491 813 1504 819 1581 
C 819 2054 1107 2566 1638 2566 
C 1946 2566 2125 2406 2253 2170 
C 2387 1933 2400 1709 2400 1421 
z
" id="LMSans10-Regular-36" transform="scale(0.015625)"/>
       </defs>
       <use xlink:href="#LMSans10-Regular-2212"/>
       <use x="77.799988" xlink:href="#LMSans10-Regular-30"/>
       <use x="127.799973" xlink:href="#LMSans10-Regular-2e"/>
       <use x="155.59996" xlink:href="#LMSans10-Regular-36"/>
       <use x="205.599945" xlink:href="#LMSans10-Regular-35"/>
      </g>
     </g>
    </g>
    <g id="xtick_5">
     <g id="line2d_5">
      <g>
       <use style="stroke:#000000;stroke-width:0.8;" x="451.066841" xlink:href="#m85bccb09d8" y="379.20577"/>
      </g>
     </g>
     <g id="text_5">
      <!-- −0.60 -->
      <g transform="translate(433.175279 395.922645)scale(0.14 -0.14)">
       <use xlink:href="#LMSans10-Regular-2212"/>
       <use x="77.799988" xlink:href="#LMSans10-Regular-30"/>
       <use x="127.799973" xlink:href="#LMSans10-Regular-2e"/>
       <use x="155.59996" xlink:href="#LMSans10-Regular-36"/>
       <use x="205.599945" xlink:href="#LMSans10-Regular-30"/>
      </g>
     </g>
    </g>
   </g>
   <g id="matplotlib.axis_2"/>
   <g id="line2d_6">
    <path clip-path="url(#p454b10aa7a)" d="M 30.910025 277.982894 
L 33.693981 277.841819 
L 36.477937 277.514434 
L 40.189879 276.625791 
L 42.973835 275.715962 
L 45.757791 274.598906 
L 49.469732 272.824919 
L 52.253688 271.177077 
L 55.96563 268.710196 
L 58.749586 266.697184 
L 62.461527 263.774392 
L 67.101454 259.797924 
L 72.669366 254.720597 
L 81.949219 245.907606 
L 90.301087 238.153919 
L 95.868999 233.167249 
L 100.508926 229.083911 
L 107.004823 223.260857 
L 113.500721 217.024754 
L 116.284677 214.159708 
L 119.996618 210.080417 
L 123.70856 205.621131 
L 127.420501 200.848936 
L 131.132442 195.60883 
L 134.844384 190.018647 
L 139.48431 182.557472 
L 145.052222 173.028832 
L 162.683944 142.324495 
L 167.323871 134.956112 
L 171.035812 129.421301 
L 174.747753 124.326655 
L 178.459695 119.568481 
L 185.883577 110.92649 
L 190.523504 105.986949 
L 200.731343 95.736627 
L 206.299255 90.261385 
L 212.795152 83.666051 
L 218.363064 77.901587 
L 225.786947 70.2549 
L 237.850756 58.649497 
L 242.490683 54.591829 
L 249.914566 49.051908 
L 253.626507 46.783712 
L 255.482478 45.751111 
L 259.194419 43.981771 
L 261.978375 42.852424 
L 266.618302 41.480199 
L 269.402258 40.924379 
L 273.114199 40.498311 
L 275.898155 40.449368 
L 277.754126 40.476462 
L 281.466067 40.816163 
L 283.322038 41.07241 
L 287.033979 41.844302 
L 290.745921 42.883627 
L 297.241818 45.322446 
L 302.80973 47.96408 
L 309.305628 51.650096 
L 313.017569 54.044395 
L 317.657496 57.345405 
L 321.369437 60.163092 
L 326.937349 64.856213 
L 332.505261 70.110604 
L 339.001159 76.606768 
L 343.641085 81.564893 
L 348.281012 86.74731 
L 366.840719 107.593496 
L 380.760499 122.165538 
L 390.040352 131.575509 
L 401.176176 143.771848 
L 405.816103 149.44946 
L 410.45603 155.456332 
L 416.023942 163.100452 
L 423.447825 173.955063 
L 438.29559 195.673988 
L 443.863502 203.337944 
L 448.503429 209.390984 
L 453.143355 215.003131 
L 460.567238 223.364152 
L 464.27918 227.237421 
L 468.919106 231.818223 
L 474.487018 236.818663 
L 478.19896 239.856468 
L 483.766872 243.946961 
L 487.478813 246.228354 
L 490.262769 247.733629 
L 493.046725 248.970882 
L 496.758666 250.309992 
L 498.614637 250.813064 
L 501.398593 251.364753 
L 504.182549 251.631643 
L 505.110535 251.642573 
L 505.110535 251.642573 
" style="fill:none;stroke:#1f77b4;stroke-linecap:square;stroke-width:1.5;"/>
   </g>
   <g id="line2d_7">
    <path clip-path="url(#p454b10aa7a)" d="M 30.910025 362.810514 
L 30.910025 277.982894 
" style="fill:none;stroke:#1f77b4;stroke-linecap:square;stroke-width:1.5;"/>
   </g>
   <g id="line2d_8">
    <path clip-path="url(#p454b10aa7a)" d="M 505.110535 363.073917 
L 505.110535 251.642573 
" style="fill:none;stroke:#1f77b4;stroke-linecap:square;stroke-width:1.5;"/>
   </g>
   <g id="line2d_9">
    <defs>
     <path d="M 0 3 
C 0.795609 3 1.55874 2.683901 2.12132 2.12132 
C 2.683901 1.55874 3 0.795609 3 0 
C 3 -0.795609 2.683901 -1.55874 2.12132 -2.12132 
C 1.55874 -2.683901 0.795609 -3 0 -3 
C -0.795609 -3 -1.55874 -2.683901 -2.12132 -2.12132 
C -2.683901 -1.55874 -3 -0.795609 -3 0 
C -3 0.795609 -2.683901 1.55874 -2.12132 2.12132 
C -1.55874 2.683901 -0.795609 3 0 3 
z
" id="m132be04b5f" style="stroke:#000000;"/>
    </defs>
    <g clip-path="url(#p454b10aa7a)">
     <use style="fill:#1f77b4;stroke:#000000;" x="279.526998" xlink:href="#m132be04b5f" y="361.970636"/>
    </g>
   </g>
   <g id="patch_3">
    <path d="M 7.2 379.20577 
L 528.82056 379.20577 
" style="fill:none;stroke:#000000;stroke-linecap:square;stroke-linejoin:miter;stroke-width:0.8;"/>
   </g>
   <g id="text_6">
    <!-- beta -->
    <g transform="translate(253.58653 18.305)scale(0.16 -0.16)">
     <defs>
      <path d="M 3072 1427 
C 3072 2221 2637 2912 2035 2912 
C 1786 2912 1389 2848 1005 2534 
L 1005 4442 
L 525 4442 
L 525 0 
L 1024 0 
L 1024 294 
C 1178 154 1453 -70 1882 -70 
C 2522 -70 3072 570 3072 1427 
z
M 2573 1427 
C 2573 595 2035 320 1645 320 
C 1395 320 1184 435 1024 730 
L 1024 2144 
C 1126 2298 1357 2522 1709 2522 
C 2086 2522 2573 2246 2573 1427 
z
" id="LMSans10-Regular-62" transform="scale(0.015625)"/>
      <path d="M 2650 1402 
C 2650 1619 2643 2099 2394 2483 
C 2131 2880 1741 2950 1510 2950 
C 800 2950 224 2272 224 1446 
C 224 602 838 -70 1606 -70 
C 2010 -70 2374 83 2624 262 
L 2586 678 
C 2182 346 1760 320 1613 320 
C 1101 320 691 774 672 1402 
L 2650 1402 
z
M 2285 1754 
L 704 1754 
C 806 2240 1146 2560 1510 2560 
C 1843 2560 2202 2342 2285 1754 
z
" id="LMSans10-Regular-65" transform="scale(0.015625)"/>
      <path d="M 2125 173 
L 2022 550 
C 1856 416 1651 339 1446 339 
C 1210 339 1120 531 1120 870 
L 1120 2470 
L 2022 2470 
L 2022 2842 
L 1120 2842 
L 1120 3654 
L 678 3654 
L 678 2842 
L 122 2842 
L 122 2470 
L 659 2470 
L 659 762 
C 659 378 749 -70 1190 -70 
C 1638 -70 1965 90 2125 173 
z
" id="LMSans10-Regular-74" transform="scale(0.015625)"/>
      <path d="M 2618 0 
L 2618 1850 
C 2618 2502 2150 2950 1562 2950 
C 1146 2950 858 2848 557 2675 
L 595 2253 
C 928 2490 1248 2573 1562 2573 
C 1862 2573 2118 2317 2118 1843 
L 2118 1568 
C 1158 1555 346 1286 346 723 
C 346 448 518 -70 1075 -70 
C 1165 -70 1766 -58 2138 230 
L 2138 0 
L 2618 0 
z
M 2118 845 
C 2118 723 2118 563 1901 442 
C 1715 326 1472 320 1402 320 
C 1094 320 806 467 806 736 
C 806 1184 1843 1229 2118 1242 
L 2118 845 
z
" id="LMSans10-Regular-61" transform="scale(0.015625)"/>
     </defs>
     <use xlink:href="#LMSans10-Regular-62"/>
     <use x="51.699997" xlink:href="#LMSans10-Regular-65"/>
     <use x="96.099991" xlink:href="#LMSans10-Regular-74"/>
     <use x="132.199982" xlink:href="#LMSans10-Regular-61"/>
    </g>
   </g>
  </g>
  <g id="axes_2">
   <g id="patch_4">
    <path d="M 539.41896 379.20577 
L 1061.03952 379.20577 
L 1061.03952 24.305 
L 539.41896 24.305 
z
" style="fill:#ffffff;"/>
   </g>
   <g id="matplotlib.axis_3">
    <g id="xtick_6">
     <g id="line2d_10">
      <g>
       <use style="stroke:#000000;stroke-width:0.8;" x="575.879401" xlink:href="#m85bccb09d8" y="379.20577"/>
      </g>
     </g>
     <g id="text_7">
      <!-- 0.70 -->
      <g transform="translate(563.433619 395.922645)scale(0.14 -0.14)">
       <use xlink:href="#LMSans10-Regular-30"/>
       <use x="49.999985" xlink:href="#LMSans10-Regular-2e"/>
       <use x="77.799973" xlink:href="#LMSans10-Regular-37"/>
       <use x="127.799957" xlink:href="#LMSans10-Regular-30"/>
      </g>
     </g>
    </g>
    <g id="xtick_7">
     <g id="line2d_11">
      <g>
       <use style="stroke:#000000;stroke-width:0.8;" x="647.853299" xlink:href="#m85bccb09d8" y="379.20577"/>
      </g>
     </g>
     <g id="text_8">
      <!-- 0.71 -->
      <g transform="translate(635.407518 395.922645)scale(0.14 -0.14)">
       <defs>
        <path d="M 2714 0 
L 2714 371 
L 1914 371 
L 1914 4339 
L 1786 4339 
C 1408 3949 877 3930 570 3917 
L 570 3546 
C 781 3552 1088 3565 1408 3699 
L 1408 371 
L 608 371 
L 608 0 
L 2714 0 
z
" id="LMSans10-Regular-31" transform="scale(0.015625)"/>
       </defs>
       <use xlink:href="#LMSans10-Regular-30"/>
       <use x="49.999985" xlink:href="#LMSans10-Regular-2e"/>
       <use x="77.799973" xlink:href="#LMSans10-Regular-37"/>
       <use x="127.799957" xlink:href="#LMSans10-Regular-31"/>
      </g>
     </g>
    </g>
    <g id="xtick_8">
     <g id="line2d_12">
      <g>
       <use style="stroke:#000000;stroke-width:0.8;" x="719.827198" xlink:href="#m85bccb09d8" y="379.20577"/>
      </g>
     </g>
     <g id="text_9">
      <!-- 0.72 -->
      <g transform="translate(707.381417 395.922645)scale(0.14 -0.14)">
       <defs>
        <path d="M 2874 0 
L 2874 454 
L 1709 454 
C 1632 454 1555 448 1478 448 
L 781 448 
C 986 627 1472 1107 1670 1293 
C 1792 1408 2118 1677 2240 1792 
C 2528 2080 2874 2419 2874 2963 
C 2874 3699 2355 4339 1510 4339 
C 781 4339 422 3840 269 3290 
C 346 3181 378 3142 390 3123 
C 403 3110 467 3027 531 2938 
C 659 3430 838 3930 1421 3930 
C 2022 3930 2349 3450 2349 2950 
C 2349 2406 1984 2042 1606 1658 
L 1114 1203 
L 320 410 
L 320 0 
L 2874 0 
z
" id="LMSans10-Regular-32" transform="scale(0.015625)"/>
       </defs>
       <use xlink:href="#LMSans10-Regular-30"/>
       <use x="49.999985" xlink:href="#LMSans10-Regular-2e"/>
       <use x="77.799973" xlink:href="#LMSans10-Regular-37"/>
       <use x="127.799957" xlink:href="#LMSans10-Regular-32"/>
      </g>
     </g>
    </g>
    <g id="xtick_9">
     <g id="line2d_13">
      <g>
       <use style="stroke:#000000;stroke-width:0.8;" x="791.801096" xlink:href="#m85bccb09d8" y="379.20577"/>
      </g>
     </g>
     <g id="text_10">
      <!-- 0.73 -->
      <g transform="translate(779.355315 395.922645)scale(0.14 -0.14)">
       <defs>
        <path d="M 2925 1152 
C 2925 1734 2477 2131 2042 2266 
C 2528 2528 2752 2963 2752 3366 
C 2752 3917 2221 4339 1587 4339 
C 1094 4339 627 4083 358 3635 
L 589 3290 
C 774 3738 1190 3968 1581 3968 
C 1914 3968 2227 3776 2227 3366 
C 2227 2976 1965 2598 1574 2509 
C 1536 2502 1523 2502 1069 2464 
L 1069 2074 
L 1523 2074 
C 2214 2074 2355 1478 2355 1158 
C 2355 659 2061 250 1568 250 
C 1126 250 621 474 339 909 
L 269 525 
C 736 -77 1325 -141 1581 -141 
C 2362 -141 2925 480 2925 1152 
z
" id="LMSans10-Regular-33" transform="scale(0.015625)"/>
       </defs>
       <use xlink:href="#LMSans10-Regular-30"/>
       <use x="49.999985" xlink:href="#LMSans10-Regular-2e"/>
       <use x="77.799973" xlink:href="#LMSans10-Regular-37"/>
       <use x="127.799957" xlink:href="#LMSans10-Regular-33"/>
      </g>
     </g>
    </g>
    <g id="xtick_10">
     <g id="line2d_14">
      <g>
       <use style="stroke:#000000;stroke-width:0.8;" x="863.774995" xlink:href="#m85bccb09d8" y="379.20577"/>
      </g>
     </g>
     <g id="text_11">
      <!-- 0.74 -->
      <g transform="translate(851.329214 395.922645)scale(0.14 -0.14)">
       <defs>
        <path d="M 3014 1094 
L 3014 1485 
L 2381 1485 
L 2381 4198 
L 1798 4198 
L 179 1485 
L 179 1094 
L 1875 1094 
L 1875 0 
L 2381 0 
L 2381 1094 
L 3014 1094 
z
M 1914 1485 
L 678 1485 
C 1011 2035 1907 3552 1914 3917 
L 1914 1485 
z
" id="LMSans10-Regular-34" transform="scale(0.015625)"/>
       </defs>
       <use xlink:href="#LMSans10-Regular-30"/>
       <use x="49.999985" xlink:href="#LMSans10-Regular-2e"/>
       <use x="77.799973" xlink:href="#LMSans10-Regular-37"/>
       <use x="127.799957" xlink:href="#LMSans10-Regular-34"/>
      </g>
     </g>
    </g>
    <g id="xtick_11">
     <g id="line2d_15">
      <g>
       <use style="stroke:#000000;stroke-width:0.8;" x="935.748894" xlink:href="#m85bccb09d8" y="379.20577"/>
      </g>
     </g>
     <g id="text_12">
      <!-- 0.75 -->
      <g transform="translate(923.303112 395.922645)scale(0.14 -0.14)">
       <use xlink:href="#LMSans10-Regular-30"/>
       <use x="49.999985" xlink:href="#LMSans10-Regular-2e"/>
       <use x="77.799973" xlink:href="#LMSans10-Regular-37"/>
       <use x="127.799957" xlink:href="#LMSans10-Regular-35"/>
      </g>
     </g>
    </g>
    <g id="xtick_12">
     <g id="line2d_16">
      <g>
       <use style="stroke:#000000;stroke-width:0.8;" x="1007.722792" xlink:href="#m85bccb09d8" y="379.20577"/>
      </g>
     </g>
     <g id="text_13">
      <!-- 0.76 -->
      <g transform="translate(995.277011 395.922645)scale(0.14 -0.14)">
       <use xlink:href="#LMSans10-Regular-30"/>
       <use x="49.999985" xlink:href="#LMSans10-Regular-2e"/>
       <use x="77.799973" xlink:href="#LMSans10-Regular-37"/>
       <use x="127.799957" xlink:href="#LMSans10-Regular-36"/>
      </g>
     </g>
    </g>
   </g>
   <g id="matplotlib.axis_4"/>
   <g id="line2d_17">
    <path clip-path="url(#p76f8121fb9)" d="M 563.128985 230.997889 
L 566.840927 230.870756 
L 570.552868 230.440819 
L 573.336824 229.939446 
L 575.192795 229.577055 
L 578.904736 228.446218 
L 581.688692 227.404369 
L 584.472648 226.151088 
L 588.18459 224.065485 
L 590.968546 222.134603 
L 594.680487 219.147573 
L 598.392428 215.662623 
L 601.176384 212.697816 
L 604.888326 208.316872 
L 609.528252 202.225879 
L 612.312209 198.214288 
L 616.952135 191.193596 
L 622.520047 182.196069 
L 630.871915 168.304928 
L 637.367813 157.555158 
L 644.791695 145.530446 
L 654.071549 131.172147 
L 667.991329 110.713178 
L 692.118948 76.637269 
L 696.758875 70.273143 
L 703.254772 61.997125 
L 706.966713 57.646342 
L 710.678655 53.655669 
L 713.462611 50.924912 
L 717.174552 47.696231 
L 719.958508 45.612967 
L 723.670449 43.383452 
L 725.52642 42.540277 
L 728.310376 41.524352 
L 730.166347 41.035185 
L 732.950303 40.587721 
L 735.734259 40.436853 
L 739.4462 40.730058 
L 742.230156 41.222315 
L 745.942098 42.149129 
L 749.654039 43.398979 
L 752.437995 44.444716 
L 758.005907 46.61136 
L 762.645834 48.179638 
L 765.42979 48.992115 
L 770.069716 50.088434 
L 773.781658 50.540394 
L 779.34957 50.925512 
L 784.917482 50.709152 
L 787.701438 50.517707 
L 790.485394 50.239052 
L 797.909277 49.621029 
L 800.693233 49.493653 
L 804.405174 49.418907 
L 812.757042 50.130021 
L 818.324954 51.322512 
L 820.180925 51.851736 
L 823.892866 53.159494 
L 827.604808 54.634568 
L 829.460778 55.511385 
L 835.956676 59.201851 
L 840.596602 62.569238 
L 844.308544 65.755215 
L 847.0925 68.362968 
L 849.876456 71.27334 
L 853.588397 75.602848 
L 857.300338 80.419961 
L 860.084294 84.330012 
L 864.724221 91.414493 
L 868.436163 97.544712 
L 874.004075 107.36714 
L 881.427957 121.22229 
L 890.707811 138.772933 
L 899.059679 154.407034 
L 906.483562 167.75169 
L 912.979459 178.860438 
L 919.475356 189.417839 
L 922.259312 193.734809 
L 925.971254 199.172091 
L 932.467151 208.142731 
L 936.179092 212.81946 
L 941.747004 219.383423 
L 946.386931 224.463964 
L 954.738799 232.911928 
L 983.506345 261.104285 
L 987.218286 264.724855 
L 992.786198 269.99089 
L 997.426125 273.937583 
L 1001.138066 276.850419 
L 1005.777993 280.174546 
L 1008.561949 281.968088 
L 1011.345905 283.570301 
L 1015.057846 285.396811 
L 1018.769788 286.956879 
L 1022.481729 288.241571 
L 1026.19367 289.246432 
L 1030.833597 290.082438 
L 1034.545539 290.445733 
L 1037.329495 290.570907 
L 1037.329495 290.570907 
" style="fill:none;stroke:#1f77b4;stroke-linecap:square;stroke-width:1.5;"/>
   </g>
   <g id="line2d_18">
    <path clip-path="url(#p76f8121fb9)" d="M 563.128985 363.073917 
L 563.128985 230.997889 
" style="fill:none;stroke:#1f77b4;stroke-linecap:square;stroke-width:1.5;"/>
   </g>
   <g id="line2d_19">
    <path clip-path="url(#p76f8121fb9)" d="M 1037.329495 362.478187 
L 1037.329495 290.570907 
" style="fill:none;stroke:#1f77b4;stroke-linecap:square;stroke-width:1.5;"/>
   </g>
   <g id="line2d_20">
    <g clip-path="url(#p76f8121fb9)">
     <use style="fill:#1f77b4;stroke:#000000;" x="777.243206" xlink:href="#m132be04b5f" y="361.766233"/>
    </g>
   </g>
   <g id="patch_5">
    <path d="M 539.41896 379.20577 
L 1061.03952 379.20577 
" style="fill:none;stroke:#000000;stroke-linecap:square;stroke-linejoin:miter;stroke-width:0.8;"/>
   </g>
   <g id="text_14">
    <!-- sigma -->
    <g transform="translate(781.05299 18.305)scale(0.16 -0.16)">
     <defs>
      <path d="M 2304 819 
C 2304 1171 2067 1389 2054 1408 
C 1805 1632 1632 1670 1312 1728 
C 960 1798 666 1862 666 2176 
C 666 2573 1126 2573 1210 2573 
C 1414 2573 1754 2547 2118 2330 
L 2195 2746 
C 1862 2899 1600 2950 1274 2950 
C 1114 2950 211 2950 211 2112 
C 211 1798 397 1594 557 1472 
C 755 1331 896 1306 1248 1235 
C 1478 1190 1850 1114 1850 774 
C 1850 333 1344 333 1248 333 
C 730 333 371 570 256 646 
L 179 211 
C 384 109 736 -70 1254 -70 
C 1370 -70 1722 -70 1997 134 
C 2195 288 2304 544 2304 819 
z
" id="LMSans10-Regular-73" transform="scale(0.015625)"/>
      <path d="M 998 0 
L 998 2842 
L 518 2842 
L 518 0 
L 998 0 
z
M 1050 3622 
L 1050 4192 
L 480 4192 
L 480 3622 
L 1050 3622 
z
" id="LMSans10-Regular-69" transform="scale(0.015625)"/>
      <path d="M 3104 2509 
L 3034 2912 
C 2586 2912 2214 2790 2022 2707 
C 1888 2816 1670 2912 1414 2912 
C 864 2912 397 2451 397 1869 
C 397 1632 480 1402 608 1235 
C 422 973 422 723 422 691 
C 422 525 480 339 589 205 
C 256 6 179 -288 179 -454 
C 179 -934 813 -1318 1594 -1318 
C 2381 -1318 3014 -941 3014 -448 
C 3014 442 1946 442 1696 442 
L 1133 442 
C 1050 442 762 442 762 781 
C 762 851 787 954 832 1011 
C 966 915 1178 826 1414 826 
C 1990 826 2438 1299 2438 1869 
C 2438 2176 2298 2413 2227 2509 
L 2253 2502 
C 2394 2502 2573 2528 2726 2528 
C 2842 2528 3104 2509 3104 2509 
z
M 1990 1869 
C 1990 1370 1690 1190 1414 1190 
C 1178 1190 845 1338 845 1869 
C 845 2400 1178 2547 1414 2547 
C 1690 2547 1990 2368 1990 1869 
z
M 2566 -461 
C 2566 -742 2125 -954 1600 -954 
C 1082 -954 627 -755 627 -454 
C 627 -435 627 -19 1126 -19 
L 1702 -19 
C 1843 -19 2566 -19 2566 -461 
z
" id="LMSans10-Regular-67" transform="scale(0.015625)"/>
      <path d="M 4563 0 
L 4563 1907 
C 4563 2336 4461 2912 3686 2912 
C 3302 2912 2970 2733 2733 2387 
C 2566 2874 2118 2912 1914 2912 
C 1453 2912 1152 2650 979 2419 
L 979 2880 
L 518 2880 
L 518 0 
L 1018 0 
L 1018 1568 
C 1018 2003 1190 2522 1664 2522 
C 2259 2522 2291 2106 2291 1862 
L 2291 0 
L 2790 0 
L 2790 1568 
C 2790 2003 2963 2522 3437 2522 
C 4032 2522 4064 2106 4064 1862 
L 4064 0 
L 4563 0 
z
" id="LMSans10-Regular-6d" transform="scale(0.015625)"/>
     </defs>
     <use xlink:href="#LMSans10-Regular-73"/>
     <use x="38.299988" xlink:href="#LMSans10-Regular-69"/>
     <use x="62.199982" xlink:href="#LMSans10-Regular-67"/>
     <use x="112.199966" xlink:href="#LMSans10-Regular-6d"/>
     <use x="191.59996" xlink:href="#LMSans10-Regular-61"/>
    </g>
   </g>
  </g>
 </g>
 <defs>
  <clipPath id="p454b10aa7a">
   <rect height="354.90077" width="521.62056" x="7.2" y="24.305"/>
  </clipPath>
  <clipPath id="p76f8121fb9">
   <rect height="354.90077" width="521.62056" x="539.41896" y="24.305"/>
  </clipPath>
 </defs>
</svg>
